<svg width="212" height="245" viewBox="0 0 212 245" fill="none" xmlns="http://www.w3.org/2000/svg">
<g filter="url(#filter0_d)">
<path d="M134.133 16.0614L202.26 127.206C212.051 143.17 207.242 164.172 191.514 174.11C186.235 177.458 180.082 179.242 173.794 179.249H37.5297C19.0162 179.249 4 164.012 4 145.201C4 138.838 5.75883 132.614 9.063 127.206L77.2 16.0614C86.9803 0.0981712 107.659 -4.79137 123.387 5.14705C127.739 7.89555 131.419 11.6299 134.133 16.0614ZM105.667 139.415C108.363 139.415 110.949 138.366 112.856 136.499C114.762 134.631 115.833 132.098 115.833 129.457C115.833 126.816 114.762 124.283 112.856 122.415C110.949 120.548 108.363 119.499 105.667 119.499C102.97 119.499 100.384 120.548 98.4778 122.415C96.5711 124.283 95.5 126.816 95.5 129.457C95.5 132.098 96.5711 134.631 98.4778 136.499C100.384 138.366 102.97 139.415 105.667 139.415ZM105.667 49.7903C102.97 49.7903 100.384 50.8394 98.4778 52.707C96.5711 54.5745 95.5 57.1075 95.5 59.7486V99.5819C95.5 102.223 96.5711 104.756 98.4778 106.624C100.384 108.491 102.97 109.54 105.667 109.54C108.363 109.54 110.949 108.491 112.856 106.624C114.762 104.756 115.833 102.223 115.833 99.5819V59.7486C115.833 57.1075 114.762 54.5745 112.856 52.707C110.949 50.8394 108.363 49.7903 105.667 49.7903Z" fill="#E10000"/>
<rect x="16" y="189" width="185" height="48" rx="24" fill="url(#paint0_radial)" fill-opacity="0.89"/>
<path d="M84.418 221V218.246H86.8672V207.453H84.418V211.25H81.6172V204.699H96.3945V211.25H93.6289V207.453H91.1094V218.246H93.5586V221H84.418ZM97.6484 221V218.246H100.121V207.453H97.6484V204.699H106.859V207.453H104.363V218.246H106.859V221H97.6484ZM116.668 218.246V221H108.078V218.246H110.152V207.453H108.078V204.699H116.668C118.668 204.699 120.211 205.168 121.297 206.105C122.391 207.043 122.938 208.305 122.938 209.891C122.938 210.797 122.746 211.621 122.363 212.363C121.98 213.098 121.488 213.664 120.887 214.062C120.293 214.453 119.609 214.723 118.836 214.871C118.07 215.012 117.109 215.082 115.953 215.082H114.395V218.246H116.668ZM114.395 212.363H115.027C116.48 212.363 117.414 212.129 117.828 211.66C118.25 211.184 118.461 210.594 118.461 209.891C118.461 209.297 118.316 208.793 118.027 208.379C117.738 207.957 117.406 207.699 117.031 207.605C116.656 207.504 116.043 207.453 115.191 207.453H114.395V212.363ZM124.508 221V215.445H127.273C127.305 216.461 127.57 217.211 128.07 217.695C128.57 218.172 129.141 218.41 129.781 218.41C130.281 218.41 130.703 218.238 131.047 217.895C131.391 217.543 131.562 217.133 131.562 216.664C131.562 216.164 131.395 215.746 131.059 215.41C130.723 215.066 130.109 214.676 129.219 214.238C127.336 213.324 126.055 212.52 125.375 211.824C124.703 211.129 124.367 210.191 124.367 209.012C124.367 207.59 124.812 206.488 125.703 205.707C126.594 204.926 127.605 204.535 128.738 204.535C130.035 204.535 131.039 205.039 131.75 206.047V204.699H134.504V209.656H131.75C131.664 208.891 131.398 208.301 130.953 207.887C130.516 207.465 130.004 207.254 129.418 207.254C128.965 207.254 128.582 207.375 128.27 207.617C127.957 207.859 127.801 208.176 127.801 208.566C127.801 208.902 127.93 209.223 128.188 209.527C128.445 209.824 129.199 210.25 130.449 210.805C131.652 211.344 132.574 211.832 133.215 212.27C133.863 212.699 134.375 213.262 134.75 213.957C135.125 214.645 135.312 215.441 135.312 216.348C135.312 217.957 134.844 219.168 133.906 219.98C132.969 220.793 131.859 221.199 130.578 221.199C129.148 221.199 128.047 220.672 127.273 219.617V221H124.508Z" fill="black"/>
</g>
<defs>
<filter id="filter0_d" x="0" y="0" width="211.333" height="245" filterUnits="userSpaceOnUse" color-interpolation-filters="sRGB">
<feFlood flood-opacity="0" result="BackgroundImageFix"/>
<feColorMatrix in="SourceAlpha" type="matrix" values="0 0 0 0 0 0 0 0 0 0 0 0 0 0 0 0 0 0 127 0"/>
<feOffset dy="4"/>
<feGaussianBlur stdDeviation="2"/>
<feColorMatrix type="matrix" values="0 0 0 0 0 0 0 0 0 0 0 0 0 0 0 0 0 0 0.75 0"/>
<feBlend mode="normal" in2="BackgroundImageFix" result="effect1_dropShadow"/>
<feBlend mode="normal" in="SourceGraphic" in2="effect1_dropShadow" result="shape"/>
</filter>
<radialGradient id="paint0_radial" cx="0" cy="0" r="1" gradientUnits="userSpaceOnUse" gradientTransform="translate(108.5 213) rotate(-60.1135) scale(50.1722 193.372)">
<stop offset="0.9998" stop-color="#E66E00"/>
<stop offset="0.9999" stop-color="#E66E00"/>
<stop offset="1" stop-color="#E66E00" stop-opacity="0"/>
</radialGradient>
</defs>
</svg>
