<svg width="69" height="91" viewBox="0 0 69 91" fill="none" xmlns="http://www.w3.org/2000/svg">
<g filter="url(#filter0_d)">
<path d="M51.8203 53.0791L34.5 77L17.1797 53.0791C14.0807 49.5661 11.9687 45.4406 10.8437 40.7026C9.71876 35.9647 9.71876 31.2267 10.8437 26.4888C11.9687 21.7508 14.0807 17.6022 17.1797 14.043C19.557 11.4082 22.2633 9.40902 25.2986 8.04541C28.3339 6.6818 31.401 6 34.5 6C37.599 6 40.6661 6.6818 43.7014 8.04541C46.7367 9.40902 49.443 11.4082 51.8203 14.043C54.9193 17.6022 57.0313 21.7508 58.1563 26.4888C59.2812 31.2267 59.2812 35.9647 58.1563 40.7026C57.0313 45.4406 54.9193 49.5661 51.8203 53.0791Z" fill="#A60D0D"/>
<path d="M47.08 43.069C47.08 43.069 46.31 43.546 45.541 43.069C44.771 42.592 45.23 41.823 45.23 41.823C44.363 41.748 44.272 40.945 44.587 40.219C44.0702 40.0751 43.5364 40.0014 43 40H27C25.4087 40 23.8826 40.6321 22.7574 41.7574C21.6321 42.8826 21 44.4087 21 46V48H49V46C49 45.38 48.906 44.781 48.731 44.218C47.047 44.86 47.08 43.069 47.08 43.069V43.069Z" fill="#D99E82"/>
<path d="M30.64 40.101C32.384 41.368 33.489 43.829 35 43.829C36.511 43.829 37.616 41.367 39.36 40.101V36.29H30.64V40.101V40.101Z" fill="#CCD6DD"/>
<path d="M30.632 37.973C31.848 39.347 33.356 40 34.996 40C36.635 40 38.143 39.346 39.36 37.973V34.482H30.632V37.973Z" fill="#99AAB5"/>
<path d="M28.444 27.935C28.444 29.383 27.71 30.557 26.805 30.557C25.9 30.557 25.166 29.383 25.166 27.935C25.166 26.487 25.9 25.312 26.805 25.312C27.711 25.313 28.444 26.487 28.444 27.935V27.935ZM44.833 27.935C44.833 29.383 44.099 30.557 43.194 30.557C42.289 30.557 41.555 29.383 41.555 27.935C41.555 26.487 42.289 25.312 43.194 25.312C44.1 25.313 44.833 26.487 44.833 27.935V27.935Z" fill="#CCD6DD"/>
<path d="M26.478 28.96C26.478 23.371 30.294 18.839 35 18.839C39.706 18.839 43.522 23.37 43.522 28.96C43.522 34 38.406 39.08 35 39.08C31.594 39.08 26.478 34 26.478 28.96Z" fill="#CCD6DD"/>
<path d="M29.232 29.768C28.8583 29.3923 28.6485 28.8839 28.6485 28.354C28.6485 27.8241 28.8583 27.3157 29.232 26.94L29.939 26.233C30.3147 25.8593 30.8231 25.6495 31.353 25.6495C31.8829 25.6495 32.3913 25.8593 32.767 26.233C33.1407 26.6087 33.3505 27.1171 33.3505 27.647C33.3505 28.1769 33.1407 28.6853 32.767 29.061L32.06 29.768C31.6843 30.1417 31.1759 30.3515 30.646 30.3515C30.1161 30.3515 29.6077 30.1417 29.232 29.768V29.768ZM37.232 26.232C37.6077 25.8583 38.1161 25.6485 38.646 25.6485C39.1759 25.6485 39.6843 25.8583 40.06 26.232L40.767 26.939C41.1407 27.3147 41.3505 27.8231 41.3505 28.353C41.3505 28.8829 41.1407 29.3913 40.767 29.767C40.3913 30.1407 39.8829 30.3505 39.353 30.3505C38.8231 30.3505 38.3147 30.1407 37.939 29.767L37.232 29.06C36.8583 28.6843 36.6485 28.1759 36.6485 27.646C36.6485 27.1161 36.8583 26.6077 37.232 26.232V26.232Z" fill="#99AAB5"/>
<path d="M35 33.816C32.246 33.816 31.4 34.522 31.259 34.664C31.1966 34.7232 31.1464 34.7942 31.1114 34.8728C31.0763 34.9514 31.0571 35.0361 31.0549 35.1222C31.0503 35.2959 31.1149 35.4644 31.2345 35.5905C31.3541 35.7166 31.5189 35.79 31.6927 35.7946C31.8664 35.7992 32.0349 35.7346 32.161 35.615C32.213 35.577 32.882 35.128 35 35.128C37.2 35.128 37.836 35.613 37.842 35.618C37.9024 35.6778 37.9742 35.7249 38.053 35.7567C38.1319 35.7884 38.2162 35.8042 38.3012 35.8029C38.3862 35.8017 38.4701 35.7836 38.548 35.7496C38.6259 35.7156 38.6963 35.6665 38.755 35.605C38.8763 35.4777 38.9428 35.3079 38.9401 35.1321C38.9375 34.9563 38.866 34.7886 38.741 34.665C38.6 34.522 37.754 33.816 35 33.816V33.816Z" fill="#66757F"/>
<path d="M45.646 21.958C44.813 21.77 43.341 20.05 42.803 19.231C42.797 19.222 42.791 19.218 42.786 19.21C41.432 17.36 39.142 15.861 36.164 15.546C36.3119 15.3046 36.4253 15.0438 36.501 14.771C36.623 14.311 36.772 13.118 36.084 13.91C35.509 14.572 33.678 15.338 33.094 15.571C31.668 14.864 29.643 14.968 29.188 15.187C28.626 15.458 29.149 15.418 29.5 15.479C29.936 15.554 30.407 15.865 30.859 16.196C29.148 16.859 27.898 17.926 27.07 19.149L27.066 19.154C26.456 20.04 25.371 21.292 24.792 21.5C23.667 21.903 25.035 22.063 25.604 21.809C25.733 21.752 25.865 21.693 25.998 21.626C25.8841 22.1163 25.8251 22.6177 25.822 23.121C25.822 26.594 27.038 27.558 27.234 26.594C27.94 23.121 30.058 21.731 30.058 21.731C33.271 25.562 32.958 22.312 32.958 22.312C38.604 28.854 35.706 22.425 35.706 22.425C37.118 23.815 41.354 23.815 41.354 23.815L42.766 26.593C43.472 27.983 44.178 26.593 44.178 23.12C44.1747 22.8294 44.1483 22.5395 44.099 22.253C44.524 22.41 44.911 22.468 45.229 22.478C45.896 22.5 46.479 22.146 45.646 21.958V21.958Z" fill="#292F33"/>
<path d="M32.5 27.5C32.5 28.05 32.05 28.5 31.5 28.5H30.5C29.95 28.5 29.5 28.05 29.5 27.5C29.5 26.95 29.95 26.5 30.5 26.5H31.5C32.05 26.5 32.5 26.95 32.5 27.5ZM40.5 27.5C40.5 28.05 40.05 28.5 39.5 28.5H38.5C37.95 28.5 37.5 28.05 37.5 27.5C37.5 26.95 37.95 26.5 38.5 26.5H39.5C40.05 26.5 40.5 26.95 40.5 27.5Z" fill="#662113"/>
<path d="M35.038 43.234C35.038 43.234 38.382 45.371 39.094 45.656C39.25 45.719 38.728 42 38.728 42L36.313 42.547L34.996 44.078L34.001 42H31.274C31.274 42 30.75 45.781 31.042 45.625C31.68 45.283 35.038 43.234 35.038 43.234Z" fill="#C1694F"/>
<path d="M36.312 42.547C36.285 42.601 35.95 42.824 35.706 43.312C35.4474 43.1758 35.1735 43.0711 34.89 43C33.555 42.671 32.713 42.961 32.713 42.961C32.713 42.961 32.926 44.452 33.109 44.781C33.265 45.062 33.622 45.657 33.622 45.657C33.622 45.657 32.958 46 32.677 48H36.563C36.282 46.406 35.485 45.938 35.485 45.938C35.485 45.938 36.314 45.309 36.501 45.047C36.813 44.609 36.893 44.239 36.893 44.239C36.893 44.239 36.842 44.177 36.748 44.08C36.958 43.99 37.18 43.859 37.406 43.656C38.453 42.719 36.312 42.547 36.312 42.547V42.547Z" fill="#226699"/>
<path d="M30.292 38.625C30.858 39.191 34.001 42.008 34.001 42.008C34.001 42.008 32.875 43.25 30.917 45.542C30.72 45.772 29.375 40.917 29.334 39.834C29.322 39.53 30.021 38.354 30.292 38.625V38.625ZM39.73 38.625C39.164 39.191 36.312 42.547 36.312 42.547C36.312 42.547 37.146 43.25 39.105 45.542C39.302 45.772 40.647 40.917 40.688 39.834C40.7 39.53 40.001 38.354 39.73 38.625V38.625Z" fill="#FFD983"/>
<path d="M43.929 45.341C43.802 47.27 43.099 48 43.099 48H44.484C44.484 48 44.673 45.025 43.929 45.341V45.341Z" fill="#662113"/>
<path d="M34 32C33.8675 31.9997 33.7404 31.947 33.6467 31.8533C33.553 31.7596 33.5003 31.6325 33.5 31.5V30.5C33.5 30.225 33.725 30 34 30C34.275 30 34.5 30.225 34.5 30.5V31.5C34.5 31.775 34.275 32 34 32ZM36 32C35.8675 31.9997 35.7404 31.947 35.6467 31.8533C35.553 31.7596 35.5003 31.6325 35.5 31.5V30.5C35.5 30.225 35.725 30 36 30C36.275 30 36.5 30.225 36.5 30.5V31.5C36.5 31.775 36.275 32 36 32Z" fill="#99AAB5"/>
<path d="M30.811 32.784C29.101 32.784 27.719 31.427 27.646 31.353C27.5995 31.3066 27.5626 31.2514 27.5374 31.1908C27.5123 31.1301 27.4993 31.065 27.4992 30.9993C27.4992 30.9337 27.5121 30.8686 27.5372 30.8079C27.5623 30.7472 27.5991 30.692 27.6455 30.6455C27.7393 30.5516 27.8665 30.4988 27.9991 30.4987C28.0648 30.4987 28.1299 30.5116 28.1906 30.5367C28.2513 30.5618 28.3065 30.5986 28.353 30.645C28.371 30.663 30.126 32.379 31.776 31.552C31.8348 31.5226 31.8987 31.5052 31.9643 31.5005C32.0298 31.4959 32.0956 31.5042 32.1579 31.525C32.2202 31.5458 32.2778 31.5787 32.3274 31.6218C32.377 31.6648 32.4176 31.7172 32.447 31.776C32.4763 31.8348 32.4938 31.8987 32.4985 31.9643C32.5031 32.0298 32.4948 32.0956 32.474 32.1579C32.4532 32.2202 32.4203 32.2778 32.3772 32.3274C32.3342 32.377 32.2818 32.4176 32.223 32.447C31.7854 32.6689 31.3016 32.7844 30.811 32.784ZM39.189 32.784C38.698 32.7844 38.2139 32.6689 37.776 32.447C37.6573 32.3877 37.567 32.2837 37.525 32.1579C37.483 32.0321 37.4927 31.8947 37.552 31.776C37.6113 31.6573 37.7153 31.567 37.8411 31.525C37.9669 31.483 38.1043 31.4927 38.223 31.552C39.88 32.381 41.629 30.662 41.646 30.646C41.7403 30.5549 41.8666 30.5045 41.9977 30.5057C42.1288 30.5068 42.2542 30.5594 42.3469 30.6521C42.4396 30.7448 42.4922 30.8702 42.4933 31.0013C42.4945 31.1324 42.4441 31.2587 42.353 31.353C42.281 31.427 40.898 32.784 39.189 32.784V32.784Z" fill="#9AAAB4"/>
<path d="M22.617 45.962C22.936 45.711 23.489 43.966 24.486 43.551C25.483 43.136 27.692 42.594 27.659 43.641C27.626 44.688 26.319 46.126 26.591 46.659C25.611 47.135 21.604 46.758 22.617 45.962V45.962Z" fill="#662113"/>
<path d="M23.238 45.802C23.557 45.551 23.889 44.056 24.886 43.642C25.883 43.228 27.692 42.595 27.658 43.642C27.624 44.689 26.428 45.327 25.448 45.802C24.469 46.277 22.226 46.597 23.238 45.802Z" fill="#CCD6DD"/>
</g>
<defs>
<filter id="filter0_d" x="0" y="0" width="69" height="91" filterUnits="userSpaceOnUse" color-interpolation-filters="sRGB">
<feFlood flood-opacity="0" result="BackgroundImageFix"/>
<feColorMatrix in="SourceAlpha" type="matrix" values="0 0 0 0 0 0 0 0 0 0 0 0 0 0 0 0 0 0 127 0"/>
<feOffset dy="4"/>
<feGaussianBlur stdDeviation="5"/>
<feColorMatrix type="matrix" values="0 0 0 0 0 0 0 0 0 0 0 0 0 0 0 0 0 0 0.75 0"/>
<feBlend mode="normal" in2="BackgroundImageFix" result="effect1_dropShadow"/>
<feBlend mode="normal" in="SourceGraphic" in2="effect1_dropShadow" result="shape"/>
</filter>
</defs>
</svg>